<svg version="1.1" id="Layer_1" xmlns="http://www.w3.org/2000/svg" xmlns:xlink="http://www.w3.org/1999/xlink" x="0px" y="0px"
	 width="100%" viewBox="0 0 496 496" enable-background="new 0 0 496 496" xml:space="preserve">
<path fill="#000000" opacity="1.000000" stroke="none" 
	d="
M263.367798,110.862862 
	C261.624237,119.086548 266.548431,125.101295 268.507568,131.916336 
	C270.564697,139.072144 275.273010,145.314148 275.571655,153.018692 
	C283.225220,155.804520 282.967590,165.803192 290.511353,169.064209 
	C295.014343,171.010712 299.670502,171.874466 304.519745,173.484802 
	C306.581512,168.179382 311.172760,169.413788 315.084747,169.783936 
	C318.571228,170.113815 317.368378,173.423462 317.242065,175.459274 
	C316.808746,182.442810 317.703552,183.814697 324.632050,184.536407 
	C328.470703,184.936249 332.038574,185.291428 334.827454,188.671005 
	C335.884308,189.951691 338.441956,190.070557 340.359253,190.540695 
	C341.945251,190.929581 343.751404,190.811661 344.337952,193.735138 
	C337.527771,194.788467 331.224335,192.495682 324.919647,191.973083 
	C324.248901,189.152237 326.488617,189.089615 327.847198,187.993668 
	C326.179718,186.928665 324.624939,187.822006 323.168030,187.553925 
	C322.217529,193.525391 322.297943,193.583344 337.836304,198.448502 
	C335.831360,201.254120 335.959167,200.869293 325.970337,197.551453 
	C321.217743,195.972839 319.050781,192.386032 316.087891,187.874374 
	C314.188446,192.864075 313.481873,196.699783 315.513580,200.621277 
	C317.428589,204.317459 319.434998,207.969223 321.506409,211.580170 
	C322.524567,213.355026 322.485291,214.663681 320.548065,215.694275 
	C318.591766,216.735016 317.127716,216.547943 316.046906,214.397339 
	C314.701385,211.719971 313.186523,209.128250 311.777679,206.482071 
	C310.035736,203.210434 308.440857,200.033096 303.786011,200.127365 
	C301.692505,200.169754 299.923492,198.043747 299.940613,196.104630 
	C299.973541,192.377228 297.651611,190.853348 295.039642,189.309616 
	C290.234222,186.469574 287.140564,182.161453 285.134460,177.123489 
	C283.819824,173.822128 281.902313,172.482254 278.633484,174.083466 
	C275.274200,175.728943 271.487000,174.886169 268.007904,175.853470 
	C268.263245,178.717392 270.471802,178.540970 272.064026,179.087341 
	C276.244781,180.521973 280.110077,182.336517 282.321228,186.493011 
	C282.874664,187.533371 283.553711,188.624451 284.874695,188.644852 
	C295.564606,188.809998 297.571350,197.103134 298.951508,204.833618 
	C300.289337,212.326950 300.132477,220.157822 296.856018,227.406830 
	C295.486542,230.436768 293.951508,233.270752 289.707703,233.332840 
	C285.144867,233.399612 282.696899,231.722687 282.998016,226.310150 
	C281.648163,228.246078 281.780579,229.830460 282.450134,230.682281 
	C286.239044,235.502823 285.282227,241.094894 285.329712,246.520294 
	C285.361816,250.187912 285.796539,253.698792 286.752502,257.313721 
	C288.862885,265.294189 288.778900,273.451324 286.129669,281.362244 
	C283.618225,288.861755 285.290955,291.482971 293.099426,291.617310 
	C293.765747,291.628754 294.433685,291.674103 295.098053,291.643219 
	C297.612488,291.526306 298.835815,292.793213 298.790619,295.225677 
	C298.746338,297.609772 297.181091,298.073730 295.088409,298.231506 
	C285.283081,298.970734 285.131165,299.022919 285.412567,308.911713 
	C285.862122,324.709656 286.966644,340.500153 286.285065,356.309204 
	C285.877533,365.761780 285.143372,375.206238 284.276489,384.628662 
	C284.065979,386.916260 283.904846,389.726654 280.830688,390.708740 
	C279.780670,391.044159 279.439240,392.122711 279.583466,393.188599 
	C279.867828,395.290405 280.899963,397.796478 277.549652,398.239197 
	C274.392639,398.656403 271.040009,399.015015 269.609741,393.713135 
	C268.500305,399.067413 266.743866,402.835999 262.137665,404.345398 
	C261.703705,404.487610 261.128235,404.911285 261.042419,405.298309 
	C258.954681,414.711853 251.496765,410.599884 246.030563,411.090179 
	C243.955414,411.276306 241.748840,410.129333 241.632645,407.284790 
	C241.581360,406.029449 241.052628,404.865356 239.877640,404.474182 
	C235.126633,402.892365 233.272293,399.263000 232.758484,394.167267 
	C231.167618,398.586365 227.966080,398.659576 224.579742,398.315948 
	C223.535187,398.209930 222.282181,397.850952 222.213989,396.822906 
	C221.757431,389.941925 216.810287,384.611237 216.497345,377.407532 
	C215.745377,360.097626 215.212158,342.791931 215.809189,325.495453 
	C216.049423,318.535736 216.561905,311.574554 216.672745,304.591583 
	C216.745605,300.001434 215.286926,297.863312 210.314926,298.098022 
	C207.668961,298.222961 202.989822,300.028442 203.171082,294.759094 
	C203.329788,290.144836 207.571808,291.982666 210.256210,291.645203 
	C212.482529,291.365295 215.357254,292.291382 216.236496,289.347198 
	C217.046249,286.635712 217.255859,283.713196 214.280396,281.754944 
	C213.080093,280.964996 212.754181,279.636688 212.614761,278.266266 
	C211.735901,269.628723 209.264374,260.810669 216.010361,253.137238 
	C216.739822,252.307510 216.602325,250.592133 216.620804,249.284103 
	C216.674866,245.456558 216.474350,241.622131 216.625244,237.800339 
	C216.739914,234.896545 215.725739,233.214645 212.706955,233.400421 
	C208.389603,233.666077 206.210220,230.925980 204.955643,227.559296 
	C201.086365,217.176041 200.968079,206.586273 205.482666,196.474030 
	C207.319305,192.360138 210.169022,187.884399 216.220383,188.715561 
	C217.235214,188.854965 218.289703,188.523529 218.828049,187.564148 
	C221.841125,182.194550 226.762466,179.727249 232.478043,178.369858 
	C233.261749,178.183731 233.932907,177.560135 234.025940,176.600220 
	C222.127472,170.430099 208.390228,174.525024 202.342438,186.012299 
	C201.260345,188.067657 201.376373,190.070984 201.864151,192.284546 
	C202.933578,197.137436 201.495346,199.330994 196.532074,200.434418 
	C194.218323,200.948822 192.611252,202.075302 191.511642,204.112900 
	C189.930267,207.043243 188.316635,209.956558 186.684830,212.859177 
	C185.587952,214.810242 184.935486,217.598099 181.640747,215.713943 
	C178.348679,213.831329 180.501053,211.755554 181.498184,209.832611 
	C183.184082,206.581345 185.230011,203.502716 186.734421,200.175110 
	C188.420441,196.445801 188.160538,192.656738 185.610596,187.716583 
	C181.941376,196.934616 174.090240,198.192993 166.974625,200.562027 
	C165.826050,200.944443 164.264252,200.572235 163.928375,198.566208 
	C169.299652,195.583786 178.067001,197.341705 179.796478,188.328094 
	C177.665024,187.387238 176.065598,187.483353 174.106354,187.721527 
	C175.260269,189.133591 177.892029,189.188293 177.114975,191.999359 
	C170.855179,192.849991 164.509384,194.247833 158.182190,194.112152 
	C157.669296,192.930573 157.673462,191.917175 158.255020,191.851654 
	C165.215408,191.067429 169.815002,184.382797 177.154907,184.422653 
	C179.229553,184.433914 181.430222,183.640488 183.354507,182.745911 
	C185.348312,181.819046 186.025772,179.966202 185.437576,177.681870 
	C184.719864,174.894501 182.991699,171.066467 186.847321,170.052063 
	C190.430450,169.109329 195.384354,167.703156 197.243484,173.420746 
	C207.167068,172.009674 215.560944,166.050934 225.830963,165.409332 
	C225.945999,161.805481 225.891586,158.509048 226.016190,155.263840 
	C226.371368,146.014099 230.060410,137.191376 234.228073,129.979568 
	C240.097900,119.822266 237.723450,109.898941 238.574066,99.853790 
	C239.099945,93.643341 242.213898,90.590820 248.939117,91.125023 
	C250.130005,100.983704 248.231567,111.198311 250.124283,121.586853 
	C253.440002,119.935333 252.627930,117.857582 252.652634,116.204536 
	C252.759674,109.041664 252.620010,101.874779 252.753738,94.712776 
	C252.828018,90.733322 254.644165,89.723740 258.225006,91.502388 
	C261.441101,93.099876 263.389557,95.600533 263.349060,99.391426 
	C263.309906,103.056236 263.356079,106.721962 263.367798,110.862862 
M248.253662,228.498947 
	C248.259567,233.330994 248.267059,238.163025 248.270615,242.995071 
	C248.272110,245.014282 248.636658,246.724869 251.243958,246.580963 
	C253.594193,246.451233 253.723602,244.752197 253.724197,243.013458 
	C253.728485,230.516754 253.704453,218.020035 253.725052,205.523361 
	C253.728607,203.360626 253.007751,201.933441 250.626343,201.933807 
	C248.087921,201.934189 248.294693,203.885498 248.284164,205.505127 
	C248.236572,212.836273 248.257889,220.167862 248.253662,228.498947 
M228.911636,364.090485 
	C228.038391,362.747101 227.165146,361.403748 225.866531,359.405975 
	C225.198029,368.957947 224.590576,377.637421 223.965042,386.575378 
	C226.616821,386.373444 228.641739,387.642609 230.804733,386.682587 
	C228.472931,379.378845 230.929581,371.945038 228.911636,364.090485 
M272.110931,377.353333 
	C272.172882,380.414734 272.355286,383.482758 270.881653,386.649170 
	C273.694366,386.649170 275.780273,386.649170 277.955414,386.649170 
	C277.350128,378.322754 276.759003,370.190582 276.151398,361.831879 
	C272.752594,362.841125 272.230347,365.081604 272.137421,367.450500 
	C272.020325,370.433197 272.103088,373.423737 272.110931,377.353333 
M272.092346,352.267242 
	C270.544830,362.118042 266.451233,365.836243 256.548981,366.293518 
	C254.057419,366.408569 251.557816,366.340576 249.062271,366.380249 
	C235.765076,366.591522 231.961105,363.468323 229.607407,350.423065 
	C229.593964,350.348572 229.185608,350.345306 228.963242,350.310638 
	C227.491928,356.808685 228.731628,362.264374 235.255127,365.305847 
	C242.677856,368.766510 250.579147,370.188019 258.533173,368.063202 
	C271.834839,364.509827 274.179321,361.196838 272.521881,350.016571 
	C272.363281,350.713470 272.256012,351.184723 272.092346,352.267242 
M244.738525,396.685211 
	C248.920746,395.252441 248.779602,400.038116 250.836258,401.298248 
	C253.436798,400.558228 252.053940,396.872223 255.141098,396.721497 
	C257.330322,396.614624 259.798370,397.499512 261.807831,395.691498 
	C256.762726,390.919922 243.736053,391.043396 240.230576,395.831848 
	C241.242493,397.095032 242.682495,396.499573 244.738525,396.685211 
M256.428528,326.717651 
	C259.464386,326.717651 262.500244,326.717651 265.536133,326.717651 
	C255.742432,322.834564 246.006241,322.393372 236.278152,325.085052 
	C236.270950,325.627533 236.263763,326.170013 236.256561,326.712494 
	C242.654175,326.712494 249.051804,326.712494 256.428528,326.717651 
M255.650330,193.501587 
	C255.605896,190.662704 253.908035,189.195755 251.335754,188.919128 
	C249.398407,188.710785 247.780823,189.698196 246.915802,191.560379 
	C245.953491,193.632019 246.434357,195.453888 248.059006,196.986557 
	C250.712585,199.489883 253.195755,198.570770 255.650330,193.501587 
M251.983322,388.036530 
	C253.063995,382.559570 253.527069,377.128357 250.658478,371.875031 
	C249.229630,377.233002 248.600891,382.584167 250.012894,388.015106 
	C250.073212,388.247101 250.884277,388.283905 251.983322,388.036530 
M231.687088,328.235962 
	C234.240341,322.646423 229.417557,321.708008 226.210129,319.164825 
	C224.711685,323.429291 225.286850,326.948364 227.076614,330.271637 
	C229.053070,330.812164 230.170395,329.805328 231.687088,328.235962 
M268.851898,257.306122 
	C270.664551,254.339813 271.630615,251.303726 269.712372,247.378159 
	C267.384827,250.672272 264.261108,252.078415 260.928101,253.792328 
	C263.177124,256.052490 264.857147,258.340973 268.851898,257.306122 
M276.446594,324.426117 
	C276.522552,322.688568 277.037628,320.851746 275.157501,319.270294 
	C272.756195,321.534210 268.723969,322.643951 269.621216,327.046783 
	C270.127136,329.529266 272.241150,330.550323 274.656525,330.473999 
	C276.234070,328.799591 275.544098,326.779755 276.446594,324.426117 
M231.235199,251.572830 
	C231.845444,253.879654 231.452179,256.983551 234.503937,257.657349 
	C237.294495,258.273499 238.934052,256.258484 240.448959,253.750687 
	C236.876312,252.278625 234.500656,249.600769 231.149963,247.242432 
	C231.149963,248.910950 231.149963,249.884796 231.235199,251.572830 
M288.480133,177.829880 
	C290.853516,182.455322 294.229706,185.965103 300.347260,188.617111 
	C297.663910,182.304474 293.969208,178.761154 289.379333,176.066452 
	C288.217743,175.384491 287.983673,176.292191 288.480133,177.829880 
M244.072525,406.305603 
	C247.835770,410.464355 255.978088,410.058868 257.665497,405.353790 
	C253.155167,405.116241 248.744781,404.475830 244.072525,406.305603 
M252.081467,186.328613 
	C254.699753,184.735641 253.927109,182.135132 253.412277,180.096680 
	C252.803802,177.687424 250.680939,177.916550 249.136887,179.314285 
	C247.108063,181.150848 248.482803,185.302658 252.081467,186.328613 
M275.461060,343.154694 
	C275.498291,340.173187 276.860168,336.514526 271.619476,335.660675 
	C271.426178,340.006470 273.851715,342.926239 275.414886,346.180420 
	C275.414886,345.382904 275.414886,344.585358 275.461060,343.154694 
M280.400726,165.939926 
	C281.882629,162.301895 281.271515,161.083984 277.185883,159.812149 
	C275.578094,162.928238 275.259583,165.396606 280.400726,165.939926 
M199.558578,178.611481 
	C200.299393,176.835632 199.891434,175.897537 197.924271,176.820786 
	C195.307953,178.048676 193.695663,180.076767 193.589249,183.367096 
	C197.106537,183.677307 197.446579,180.472519 199.558578,178.611481 
M306.985565,179.370514 
	C305.717560,177.157303 303.488739,176.651932 300.481445,175.503815 
	C302.726501,179.185318 304.322174,182.099579 307.779907,183.366318 
	C308.808929,181.837860 307.588684,180.975952 306.985565,179.370514 
M228.856766,335.896423 
	C225.216080,337.707428 227.022537,340.152588 227.857773,342.498932 
	C228.370056,340.231354 232.052460,338.627136 228.856766,335.896423 
z"/>
</svg>